<?xml version="1.0" standalone="no"?>
<!DOCTYPE svg PUBLIC "-//W3C//DTD SVG 20010904//EN"
 "http://www.w3.org/TR/2001/REC-SVG-20010904/DTD/svg10.dtd">
<svg version="1.0" xmlns="http://www.w3.org/2000/svg"
 width="512.000000pt" height="512.000000pt" viewBox="0 0 512.000000 512.000000"
 preserveAspectRatio="xMidYMid meet">
<metadata>
Created by potrace 1.14, written by Peter Selinger 2001-2017
</metadata>
<g transform="translate(0.000000,512.000000) scale(0.100000,-0.100000)"
fill="#000000" stroke="none">
<path d="M1368 4595 c-427 -71 -767 -411 -842 -840 -21 -119 -21 -2273 -1
-2390 66 -374 328 -679 688 -800 41 -14 90 -27 108 -30 19 -3 59 -10 89 -15
31 -5 531 -9 1150 -9 1168 0 1176 1 1335 50 189 58 378 190 500 349 90 117
174 307 202 459 4 20 8 535 9 1144 3 1076 3 1110 -16 1159 -22 58 -68 111
-120 138 -34 17 -56 22 -175 35 -72 9 -93 15 -160 46 -164 77 -273 232 -290
411 -10 108 -14 128 -35 168 -27 54 -76 97 -135 119 -48 19 -89 20 -1140 19
-836 0 -1108 -3 -1167 -13z"/>
<path d="M4290 4601 c-202 -62 -259 -303 -105 -439 80 -70 187 -84 282 -36
116 59 166 187 123 312 -41 120 -185 198 -300 163z"/>
</g>
</svg>
